<?xml version="1.0" encoding="UTF-8"?>
<svg version="1.1" xmlns="http://www.w3.org/2000/svg" width="512" height="512">
<path d="M0 0 C8.13042727 6.28813945 10.64257828 15.63036232 13.26245117 25.17163086 C13.45796066 25.88010666 13.65347015 26.58858246 13.85490417 27.31852722 C14.4921612 29.63308338 15.12354981 31.94918064 15.75390625 34.265625 C16.19801613 35.89173073 16.64213349 37.51783441 17.08625793 39.14393616 C18.0128807 42.54136128 18.93595734 45.9397294 19.85717773 49.33862305 C21.03371771 53.67647212 22.22434822 58.01031932 23.41834545 62.34339046 C24.33967814 65.69664855 25.25075713 69.05263162 26.15911293 72.40942574 C26.5935065 74.00790146 27.03164248 75.60536539 27.47371483 77.20173454 C31.71100939 92.52966628 31.71100939 92.52966628 31.0859375 100.61328125 C26.98957033 102.79527884 23.11426836 104.30849569 18.62866211 105.48486328 C17.69243688 105.73338012 17.69243688 105.73338012 16.73729801 105.9869175 C14.65586784 106.5378221 12.57211688 107.0793656 10.48828125 107.62109375 C8.98266328 108.01786619 7.47721532 108.41528423 5.97192383 108.81329346 C2.71414599 109.67348099 -0.54462979 110.52973904 -3.80422974 111.38299561 C-11.832405 113.48495399 -19.85497715 115.60816278 -27.87832451 117.7284584 C-30.72741712 118.48113772 -33.5767167 119.23302973 -36.42604065 119.98483276 C-56.65404304 125.32466188 -76.85611402 130.76015207 -97.0568924 136.20189285 C-105.90204129 138.58425874 -114.7479216 140.96390863 -123.59375 143.34375 C-124.56690533 143.60559019 -125.54006065 143.86743038 -126.54270554 144.13720512 C-147.88975293 149.88049657 -169.24480482 155.59372128 -190.6015625 161.30078125 C-197.67582284 163.19125065 -204.75006174 165.08180021 -211.82421875 166.97265625 C-212.69341635 167.20498018 -213.56261395 167.43730412 -214.45815086 167.67666817 C-227.77738931 171.2369955 -241.09451533 174.80514853 -254.41015625 178.37890625 C-255.73389661 178.73417578 -255.73389661 178.73417578 -257.0843792 179.09662247 C-264.94722502 181.20696911 -272.80993913 183.31780608 -280.67245483 185.42938232 C-298.21463744 190.14048019 -315.75866538 194.84419959 -333.3125 199.51171875 C-334.75623908 199.8957649 -336.19997489 200.27982335 -337.64370728 200.66389465 C-348.61270309 203.58148544 -348.61270309 203.58148544 -353.82012939 204.96066284 C-357.37273539 205.90173353 -360.92469573 206.84520639 -364.4765625 207.7890625 C-365.51799408 208.06394501 -366.55942566 208.33882751 -367.63241577 208.62203979 C-368.57227325 208.87220856 -369.51213074 209.12237732 -370.48046875 209.38012695 C-371.70165405 209.7036187 -371.70165405 209.7036187 -372.94750977 210.03364563 C-374.96591065 210.56583284 -374.96591065 210.56583284 -376.9140625 211.61328125 C-376.9140625 214.58328125 -376.9140625 217.55328125 -376.9140625 220.61328125 C-376.02399871 220.61252181 -375.13393493 220.61176237 -374.21689951 220.61097991 C-321.51708985 220.56626742 -268.81728219 220.53193024 -216.11745737 220.51115059 C-209.79607832 220.50864904 -203.47469931 220.50606041 -197.15332031 220.50341797 C-195.89479611 220.50289335 -194.63627192 220.50236873 -193.33961062 220.50182821 C-172.93583156 220.49311492 -152.53206372 220.47733989 -132.12829132 220.45897566 C-111.20723279 220.44030226 -90.28618014 220.42916996 -69.36511362 220.42510426 C-56.44563353 220.42235387 -43.52618516 220.41365308 -30.60671483 220.39744832 C-21.75900071 220.386913 -12.91130309 220.38367275 -4.06358315 220.3862785 C1.04845905 220.3875652 6.16044567 220.38553094 11.2724781 220.3748703 C15.94554711 220.36519571 20.61852275 220.36460829 25.29159589 220.37148346 C26.98879574 220.3723342 28.68600123 220.36974822 30.38318984 220.36351489 C32.67721959 220.3555744 34.97090519 220.35976196 37.26492882 220.36718559 C38.54306745 220.36642615 39.82120608 220.36566671 41.13807619 220.36488426 C44.0859375 220.61328125 44.0859375 220.61328125 46.0859375 222.61328125 C46.34008783 224.56218338 46.34008783 224.56218338 46.34599972 227.00128174 C46.3565981 228.39310433 46.3565981 228.39310433 46.3674106 229.81304455 C46.36499552 230.83928086 46.36258043 231.86551718 46.36009216 232.92285156 C46.36532884 234.00781323 46.37056552 235.09277491 46.37596089 236.2106142 C46.39104387 239.8709148 46.39166787 243.53107663 46.39233398 247.19140625 C46.39995014 249.80598692 46.40837669 252.42056534 46.41755676 255.03514099 C46.44043936 262.15736703 46.44833165 269.27956333 46.45338321 276.40182114 C46.45663806 280.84996739 46.46315948 285.29810498 46.4703846 289.74624634 C46.48995894 302.06311261 46.50635687 314.37997081 46.50926113 326.69685364 C46.5094487 327.48561998 46.50963627 328.27438632 46.50982952 329.08705467 C46.51019578 330.68609905 46.51055947 332.28514343 46.51092064 333.88418782 C46.51110345 334.6779576 46.51128626 335.47172737 46.51147461 336.28955078 C46.51174543 337.48166084 46.51174543 337.48166084 46.51202173 338.69785392 C46.51555995 351.56266733 46.54255646 364.42731297 46.5799725 377.29206824 C46.61808457 390.50203379 46.63741884 403.71191621 46.63772064 416.92193794 C46.63830475 424.33797567 46.64676588 431.75381359 46.67571831 439.1697998 C46.7028431 446.14985799 46.70411218 453.12951496 46.68806267 460.10960579 C46.6862467 462.66938196 46.69295201 465.22918076 46.70888138 467.788908 C46.72933135 471.28901979 46.71879407 474.78774716 46.70066833 478.2878418 C46.7138683 479.29623234 46.72706827 480.30462288 46.74066824 481.34357071 C46.6454135 489.4207218 44.2701705 495.8500968 39.0234375 502.05078125 C38.3840625 502.56640625 37.7446875 503.08203125 37.0859375 503.61328125 C36.4465625 504.14953125 35.8071875 504.68578125 35.1484375 505.23828125 C30.42897764 508.38458783 26.4427986 508.86485011 20.81439686 508.87334347 C20.08899966 508.87714914 19.36360247 508.88095481 18.61622354 508.8848758 C16.17855057 508.89520569 13.74110986 508.89128286 11.30342102 508.88743591 C9.5408158 508.89188757 7.77821258 508.89720137 6.0156123 508.90330464 C1.16632622 508.91750391 -3.68289584 508.91914756 -8.53219974 508.91870773 C-13.76004102 508.92035424 -18.98785578 508.93341769 -24.21568298 508.94490051 C-35.64957761 508.96776273 -47.08345369 508.97567247 -58.51736808 508.98072696 C-65.65590234 508.98398261 -72.79443121 508.9905043 -79.93296242 508.99772835 C-99.69510951 509.01729601 -119.45725158 509.0336992 -139.21940899 509.03660488 C-140.48435538 509.03679245 -141.74930177 509.03698002 -143.05257987 509.03717327 C-145.61697217 509.03753953 -148.18136447 509.03790323 -150.74575677 509.03826439 C-152.01873662 509.0384472 -153.29171648 509.03863001 -154.60327148 509.03881836 C-156.51507025 509.03908918 -156.51507025 509.03908918 -158.46549121 509.03936548 C-179.11901651 509.04290736 -199.77243756 509.06992995 -220.42592671 509.10731625 C-241.62743154 509.14538761 -262.82888463 509.16476227 -284.03042442 509.16506439 C-295.93557947 509.16564923 -307.84061018 509.17415838 -319.74573326 509.20306206 C-329.88296666 509.22756025 -340.02003036 509.23486933 -350.15728536 509.21981453 C-355.32918868 509.21263926 -360.50075681 509.21352991 -365.67262268 509.23622513 C-370.4096121 509.25681279 -375.14600855 509.25421659 -379.88299153 509.23335028 C-381.59431863 509.229855 -383.30568849 509.23476706 -385.01695951 509.24905472 C-395.12043473 509.32795634 -403.69339652 508.9459046 -411.73054713 502.05611223 C-418.18803044 495.31254397 -419.3674058 486.98642295 -419.27482605 477.98912048 C-419.27738932 477.06263138 -419.2799526 476.13614227 -419.28259355 475.18157774 C-419.28750592 472.09995588 -419.27108064 469.01883203 -419.25463867 465.93725586 C-419.25379185 463.71920788 -419.25426862 461.50115906 -419.25596619 459.28311157 C-419.2568254 453.2775636 -419.23921132 447.27219612 -419.21824431 441.26669002 C-419.19946541 434.98465186 -419.19772611 428.70260938 -419.19416809 422.42054749 C-419.18590915 411.88165226 -419.16718222 401.34281604 -419.14038086 390.80395508 C-419.1128131 379.95239592 -419.09159285 369.10085472 -419.07885742 358.24926758 C-419.07806925 357.57955808 -419.07728108 356.90984859 -419.07646903 356.21984487 C-419.07255371 352.85986466 -419.06876263 349.49988432 -419.06503332 346.1399039 C-419.03369238 318.2976504 -418.98093875 290.45547048 -418.9140625 262.61328125 C-419.59823242 262.55124512 -420.28240234 262.48920898 -420.98730469 262.42529297 C-421.88610352 262.34037598 -422.78490234 262.25545898 -423.7109375 262.16796875 C-424.60135742 262.08530762 -425.49177734 262.00264648 -426.40917969 261.91748047 C-437.4437665 260.57741271 -445.88587095 253.68325456 -452.76171875 245.3828125 C-459.978092 235.36499705 -460.95211909 224.60991257 -459.9140625 212.61328125 C-458.27694046 204.18405171 -454.75775674 197.84095539 -448.9140625 191.61328125 C-448.01880859 190.65615234 -448.01880859 190.65615234 -447.10546875 189.6796875 C-441.81444577 184.56466528 -435.77003657 182.09285854 -428.9140625 179.61328125 C-429.96132054 173.53155803 -431.4181145 167.59725437 -433.078125 161.65625 C-433.27597595 160.94147491 -433.4738269 160.22669983 -433.67767334 159.49026489 C-434.50201879 156.51444941 -435.32722332 153.53922675 -436.17871094 150.57104492 C-443.03146095 126.59433908 -443.03146095 126.59433908 -437.2265625 115.609375 C-429.09319265 103.23987502 -414.36460944 101.51356375 -400.91015625 97.96484375 C-399.22459038 97.51624618 -397.5391485 97.06718256 -395.8538208 96.61769104 C-392.24617972 95.6564643 -388.63775025 94.69827915 -385.02865601 93.74252319 C-379.24732505 92.21142953 -373.46786909 90.67334164 -367.6887207 89.1340332 C-361.68419049 87.53497052 -355.67957743 85.93622539 -349.67436218 84.33973694 C-331.96107567 79.6303632 -314.25713613 74.88659704 -296.55606079 70.13156128 C-288.98392732 68.09750771 -281.41122083 66.06558901 -273.83857155 64.0334568 C-271.24610429 63.33775004 -268.65365214 62.64198705 -266.061203 61.94621277 C-245.62413168 56.4613461 -225.18579049 50.98121627 -204.74713135 45.50226974 C-201.67263665 44.67807975 -198.59815774 43.8538309 -195.52368164 43.02957153 C-174.38650405 37.36288742 -153.24830556 31.70007048 -132.10611153 26.05212784 C-129.2114803 25.27880047 -126.31690648 24.50525862 -123.42234802 23.73165894 C-115.10449158 21.50880164 -106.78638702 19.28690785 -98.46664333 17.07112312 C-83.05861701 12.96681583 -67.65487986 8.8601617 -52.3125 4.515625 C-51.25700455 4.21873779 -50.20150909 3.92185059 -49.11402893 3.6159668 C-44.56627263 2.33671122 -40.02420443 1.04396521 -35.49291992 -0.29248047 C-23.91232771 -3.62416236 -11.02517503 -6.5015567 0 0 Z " fill="#5A76FE" transform="translate(462.9140625,3.38671875)"/>
<path d="M0 0 C8.13042727 6.28813945 10.64257828 15.63036232 13.26245117 25.17163086 C13.45796066 25.88010666 13.65347015 26.58858246 13.85490417 27.31852722 C14.4921612 29.63308338 15.12354981 31.94918064 15.75390625 34.265625 C16.19801613 35.89173073 16.64213349 37.51783441 17.08625793 39.14393616 C18.0128807 42.54136128 18.93595734 45.9397294 19.85717773 49.33862305 C21.03371771 53.67647212 22.22434822 58.01031932 23.41834545 62.34339046 C24.33967814 65.69664855 25.25075713 69.05263162 26.15911293 72.40942574 C26.5935065 74.00790146 27.03164248 75.60536539 27.47371483 77.20173454 C31.71100939 92.52966628 31.71100939 92.52966628 31.0859375 100.61328125 C26.98957033 102.79527884 23.11426836 104.30849569 18.62866211 105.48486328 C17.69243688 105.73338012 17.69243688 105.73338012 16.73729801 105.9869175 C14.65586784 106.5378221 12.57211688 107.0793656 10.48828125 107.62109375 C8.98266328 108.01786619 7.47721532 108.41528423 5.97192383 108.81329346 C2.71414599 109.67348099 -0.54462979 110.52973904 -3.80422974 111.38299561 C-11.832405 113.48495399 -19.85497715 115.60816278 -27.87832451 117.7284584 C-30.72741712 118.48113772 -33.5767167 119.23302973 -36.42604065 119.98483276 C-56.65404304 125.32466188 -76.85611402 130.76015207 -97.0568924 136.20189285 C-105.90204129 138.58425874 -114.7479216 140.96390863 -123.59375 143.34375 C-124.56690533 143.60559019 -125.54006065 143.86743038 -126.54270554 144.13720512 C-147.88975293 149.88049657 -169.24480482 155.59372128 -190.6015625 161.30078125 C-197.67582284 163.19125065 -204.75006174 165.08180021 -211.82421875 166.97265625 C-212.69341635 167.20498018 -213.56261395 167.43730412 -214.45815086 167.67666817 C-227.77738931 171.2369955 -241.09451533 174.80514853 -254.41015625 178.37890625 C-255.73389661 178.73417578 -255.73389661 178.73417578 -257.0843792 179.09662247 C-264.94722502 181.20696911 -272.80993913 183.31780608 -280.67245483 185.42938232 C-298.21463744 190.14048019 -315.75866538 194.84419959 -333.3125 199.51171875 C-334.75623908 199.8957649 -336.19997489 200.27982335 -337.64370728 200.66389465 C-348.61270309 203.58148544 -348.61270309 203.58148544 -353.82012939 204.96066284 C-357.37273539 205.90173353 -360.92469573 206.84520639 -364.4765625 207.7890625 C-365.51799408 208.06394501 -366.55942566 208.33882751 -367.63241577 208.62203979 C-368.57227325 208.87220856 -369.51213074 209.12237732 -370.48046875 209.38012695 C-371.70165405 209.7036187 -371.70165405 209.7036187 -372.94750977 210.03364563 C-374.96591065 210.56583284 -374.96591065 210.56583284 -376.9140625 211.61328125 C-376.9140625 214.58328125 -376.9140625 217.55328125 -376.9140625 220.61328125 C-364.0440625 220.61328125 -351.1740625 220.61328125 -337.9140625 220.61328125 C-339.2488342 229.28929728 -340.7106084 237.75470005 -342.6015625 246.30078125 C-343.13658078 248.76016371 -343.67037964 251.21981168 -344.203125 253.6796875 C-344.48188477 254.96633301 -344.76064453 256.25297852 -345.04785156 257.57861328 C-346.56569802 264.62311548 -348.0229455 271.68029437 -349.4765625 278.73828125 C-349.62415009 279.45417419 -349.77173767 280.17006714 -349.92379761 280.90765381 C-352.119256 291.57259912 -354.2336279 302.25103272 -356.22875977 312.95556641 C-357.59895071 320.24073227 -359.24287157 327.37145388 -360.9140625 334.61328125 C-380.0540625 334.61328125 -399.1940625 334.61328125 -418.9140625 334.61328125 C-418.9140625 310.85328125 -418.9140625 287.09328125 -418.9140625 262.61328125 C-422.2140625 262.28328125 -425.5140625 261.95328125 -428.9140625 261.61328125 C-440.46214477 258.50418218 -449.55464806 251.08457503 -455.73046875 240.90234375 C-461.21764888 230.29017359 -461.72968608 217.57694834 -458.3515625 206.17578125 C-456.15168444 200.47925491 -453.07666765 196.0494046 -448.9140625 191.61328125 C-448.01880859 190.65615234 -448.01880859 190.65615234 -447.10546875 189.6796875 C-441.81444577 184.56466528 -435.77003657 182.09285854 -428.9140625 179.61328125 C-429.96132054 173.53155803 -431.4181145 167.59725437 -433.078125 161.65625 C-433.27597595 160.94147491 -433.4738269 160.22669983 -433.67767334 159.49026489 C-434.50201879 156.51444941 -435.32722332 153.53922675 -436.17871094 150.57104492 C-443.03146095 126.59433908 -443.03146095 126.59433908 -437.2265625 115.609375 C-429.09319265 103.23987502 -414.36460944 101.51356375 -400.91015625 97.96484375 C-399.22459038 97.51624618 -397.5391485 97.06718256 -395.8538208 96.61769104 C-392.24617972 95.6564643 -388.63775025 94.69827915 -385.02865601 93.74252319 C-379.24732505 92.21142953 -373.46786909 90.67334164 -367.6887207 89.1340332 C-361.68419049 87.53497052 -355.67957743 85.93622539 -349.67436218 84.33973694 C-331.96107567 79.6303632 -314.25713613 74.88659704 -296.55606079 70.13156128 C-288.98392732 68.09750771 -281.41122083 66.06558901 -273.83857155 64.0334568 C-271.24610429 63.33775004 -268.65365214 62.64198705 -266.061203 61.94621277 C-245.62413168 56.4613461 -225.18579049 50.98121627 -204.74713135 45.50226974 C-201.67263665 44.67807975 -198.59815774 43.8538309 -195.52368164 43.02957153 C-174.38650405 37.36288742 -153.24830556 31.70007048 -132.10611153 26.05212784 C-129.2114803 25.27880047 -126.31690648 24.50525862 -123.42234802 23.73165894 C-115.10449158 21.50880164 -106.78638702 19.28690785 -98.46664333 17.07112312 C-83.05861701 12.96681583 -67.65487986 8.8601617 -52.3125 4.515625 C-51.25700455 4.21873779 -50.20150909 3.92185059 -49.11402893 3.6159668 C-44.56627263 2.33671122 -40.02420443 1.04396521 -35.49291992 -0.29248047 C-23.91232771 -3.62416236 -11.02517503 -6.5015567 0 0 Z " fill="#000001" transform="translate(462.9140625,3.38671875)"/>
<path d="M0 0 C8.13042727 6.28813945 10.64257828 15.63036232 13.26245117 25.17163086 C13.45796066 25.88010666 13.65347015 26.58858246 13.85490417 27.31852722 C14.4921612 29.63308338 15.12354981 31.94918064 15.75390625 34.265625 C16.19801613 35.89173073 16.64213349 37.51783441 17.08625793 39.14393616 C18.0128807 42.54136128 18.93595734 45.9397294 19.85717773 49.33862305 C21.03371771 53.67647212 22.22434822 58.01031932 23.41834545 62.34339046 C24.33967814 65.69664855 25.25075713 69.05263162 26.15911293 72.40942574 C26.5935065 74.00790146 27.03164248 75.60536539 27.47371483 77.20173454 C31.71100939 92.52966628 31.71100939 92.52966628 31.0859375 100.61328125 C26.98957033 102.79527884 23.11426836 104.30849569 18.62866211 105.48486328 C18.00455444 105.65052984 17.38044678 105.8161964 16.73742676 105.98688316 C14.65595362 106.53779893 12.57215944 107.07935287 10.48828125 107.62109375 C8.9819766 108.01804916 7.47584201 108.41565034 5.96986389 108.81384277 C2.71139977 109.67421479 -0.54806198 110.53065848 -3.80834961 111.38409424 C-11.81736587 113.48101994 -19.82081765 115.59904854 -27.82502365 117.71424484 C-30.6692242 118.46561846 -33.51363189 119.2162041 -36.35806274 119.96670532 C-56.91386962 125.39305666 -77.44326289 130.91698611 -97.9716568 136.44596481 C-102.8654755 137.76374808 -107.75963983 139.08024609 -112.65380859 140.39672852 C-114.09913971 140.78551918 -114.09913971 140.78551918 -115.57366943 141.18216419 C-117.51140998 141.70341119 -119.44915157 142.2246543 -121.38689423 142.74589348 C-124.26374681 143.51977986 -127.14057529 144.29375578 -130.01739502 145.06776428 C-164.98480015 154.47571764 -164.98480015 154.47571764 -181.0026989 158.77134323 C-184.91678707 159.82103671 -188.83064535 160.87156733 -192.74389648 161.92437744 C-196.32469083 162.88773352 -199.90608818 163.84881128 -203.48800087 164.80800056 C-205.40457144 165.32187196 -207.32048253 165.83820105 -209.2363739 166.354599 C-210.92377434 166.80567772 -210.92377434 166.80567772 -212.64526367 167.26586914 C-213.62162277 167.52799698 -214.59798187 167.79012482 -215.60392761 168.06019592 C-217.9140625 168.61328125 -217.9140625 168.61328125 -219.9140625 168.61328125 C-220.89895413 160.01944811 -221.32049573 151.4269257 -221.73001099 142.79122925 C-222.33748094 130.03253 -223.01717301 117.2884383 -223.9765625 104.55078125 C-224.7129893 94.7702448 -225.27660106 84.99942604 -225.66796875 75.19921875 C-225.99046389 67.3328063 -226.46664861 59.47337117 -226.9140625 51.61328125 C-187.55382737 40.76116301 -148.10773915 30.2353165 -108.64937878 19.74660301 C-105.35126841 18.8697029 -102.05335739 17.99205632 -98.75547791 17.11428833 C-94.44101437 15.96598382 -90.12569937 14.82095527 -85.80982971 13.677948 C-75.31931028 10.89397084 -64.85141433 8.04846756 -54.41162109 5.07958984 C-51.42703656 4.23819062 -48.44213588 3.39792072 -45.45718956 2.55780602 C-42.713657 1.77851152 -39.97685097 0.97831984 -37.23970032 0.17695618 C-25.09878084 -3.29298438 -11.63726062 -6.86250419 0 0 Z " fill="#010102" transform="translate(462.9140625,3.38671875)"/>
<path d="M0 0 C10.26576008 -0.04627383 20.53149548 -0.08184393 30.79733849 -0.10362434 C35.56382294 -0.11407612 40.33023621 -0.12826064 45.09667969 -0.15087891 C49.69374927 -0.17255773 54.29075024 -0.18455812 58.88786697 -0.18975449 C60.64460964 -0.19345919 62.40134841 -0.20069322 64.15806198 -0.21146011 C66.61245688 -0.22590924 69.06656573 -0.22798073 71.52099609 -0.22705078 C72.25251389 -0.23424133 72.98403168 -0.24143188 73.73771667 -0.24884033 C78.77189568 -0.22810432 78.77189568 -0.22810432 81 2 C81.25415033 3.94890213 81.25415033 3.94890213 81.26006222 6.38800049 C81.26712781 7.31588222 81.2741934 8.24376394 81.2814731 9.1997633 C81.27905802 10.22599961 81.27664293 11.25223593 81.27415466 12.30957031 C81.27939134 13.39453198 81.28462802 14.47949366 81.29002339 15.59733295 C81.30510637 19.25763355 81.30573037 22.91779538 81.30639648 26.578125 C81.31401264 29.19270567 81.32243919 31.80728409 81.33161926 34.42185974 C81.35450186 41.54408578 81.36239415 48.66628208 81.36744571 55.78853989 C81.37070056 60.23668614 81.37722198 64.68482373 81.3844471 69.13296509 C81.40402144 81.44983136 81.42041937 93.76668956 81.42332363 106.08357239 C81.42360499 107.2667219 81.42360499 107.2667219 81.42389202 108.47377342 C81.42425828 110.0728178 81.42462197 111.67186218 81.42498314 113.27090657 C81.42525735 114.46156123 81.42525735 114.46156123 81.42553711 115.67626953 C81.42571766 116.47100957 81.42589821 117.2657496 81.42608423 118.08457267 C81.42962245 130.94938608 81.45661896 143.81403172 81.494035 156.67878699 C81.53214707 169.88875254 81.55148134 183.09863496 81.55178314 196.30865669 C81.55236725 203.72469442 81.56082838 211.14053234 81.58978081 218.55651855 C81.6169056 225.53657674 81.61817468 232.51623371 81.60212517 239.49632454 C81.6003092 242.05610071 81.60701451 244.61589951 81.62294388 247.17562675 C81.64339385 250.67573854 81.63285657 254.17446591 81.61473083 257.67456055 C81.6279308 258.68295109 81.64113077 259.69134163 81.65473074 260.73028946 C81.559476 268.80744055 79.184233 275.23681555 73.9375 281.4375 C72.9784375 282.2109375 72.9784375 282.2109375 72 283 C71.0409375 283.804375 71.0409375 283.804375 70.0625 284.625 C65.26266928 287.82488715 60.95317608 288.27925721 55.29296875 288.1953125 C54.56757401 288.1924826 53.84217926 288.18965271 53.09480286 288.18673706 C50.79219632 288.17559799 48.48998773 288.15050566 46.1875 288.125 C44.62044835 288.11496206 43.05339057 288.10583763 41.48632812 288.09765625 C37.65740022 288.0756793 33.82876744 288.04119339 30 288 C32.36287211 286.42475193 34.2508932 285.45623048 36.8125 284.375 C42.31198742 281.67083215 45.46498403 277.22543518 48.0592556 271.77425098 C49.15521386 268.54227502 49.261896 265.92640571 49.2784729 262.514328 C49.28963638 261.2032608 49.30079987 259.8921936 49.31230164 258.54139709 C49.31466639 257.09555082 49.31684208 255.64970423 49.31884766 254.20385742 C49.32814928 252.67604035 49.33831831 251.14822836 49.34928894 249.62042236 C49.37657661 245.47829932 49.39173469 241.33621026 49.40471697 237.19402099 C49.42035289 232.86313846 49.44714165 228.53232529 49.4727478 224.20149231 C49.5195274 216.00288849 49.55627548 207.80427161 49.58942068 199.60560256 C49.63479644 188.52501323 49.695666 177.44450971 49.75566864 166.36399174 C49.84977944 148.90937086 49.92318708 131.45472542 50 114 C25.91 114 1.82 114 -23 114 C-22.37270202 108.35431817 -21.7278026 103.16700615 -20.58203125 97.66796875 C-20.4444339 97.00246002 -20.30683655 96.33695129 -20.16506958 95.65127563 C-19.71824501 93.4958224 -19.26544725 91.34167411 -18.8125 89.1875 C-18.49587671 87.66567078 -18.17955623 86.14377853 -17.86352539 84.62182617 C-15.69804401 74.2183288 -13.46037182 63.8308421 -11.20703125 53.44604492 C-9.00525718 43.21206363 -7.01900477 32.94027586 -5.09155273 22.65161133 C-4.86153564 21.43626709 -4.63151855 20.22092285 -4.39453125 18.96875 C-4.19706299 17.91107422 -3.99959473 16.85339844 -3.79614258 15.76367188 C-2.67681756 10.47219242 -1.33694059 5.24012178 0 0 Z " fill="#010203" transform="translate(428,224)"/>
<path d="M0 0 C0.80067558 5.07592623 1.23750452 10.09557133 1.46484375 15.23046875 C1.54228188 16.83968271 1.61975734 18.44889488 1.69726562 20.05810547 C1.75587769 21.3127359 1.75587769 21.3127359 1.81567383 22.5927124 C2.40746433 35.19731634 3.05825763 47.79116512 4 60.375 C4.7244857 70.07517872 5.39213665 79.7766354 5.98925781 89.4854126 C6.07839208 90.93139962 6.16852931 92.37732524 6.25976562 93.82318115 C6.72587189 101.22718344 7.11452241 108.58058405 7 116 C0.95577808 118.08258734 -5.11388245 119.92111 -11.2890625 121.57202148 C-12.17015182 121.80987366 -13.05124115 122.04772583 -13.95903015 122.29278564 C-16.84696571 123.07159487 -19.73593676 123.84647916 -22.625 124.62109375 C-24.656537 125.16757038 -26.68803039 125.71420917 -28.71948242 126.26100159 C-32.97218616 127.40500706 -37.22540597 128.54706811 -41.47900391 129.68774414 C-46.88466101 131.13752638 -52.28902049 132.59207868 -57.69299316 134.04812527 C-61.88967072 135.17830047 -66.0870384 136.30589536 -70.28460693 137.43275642 C-72.27476796 137.96734342 -74.26472396 138.50269439 -76.25445557 139.03887749 C-88.12520558 142.23596788 -100.01220956 145.27214408 -112 148 C-112.98489163 139.40616686 -113.40643323 130.81364445 -113.81594849 122.177948 C-114.42341844 109.41924875 -115.10311051 96.67515705 -116.0625 83.9375 C-116.7989268 74.15696355 -117.36253856 64.38614479 -117.75390625 54.5859375 C-118.07640139 46.71952505 -118.55258611 38.86008992 -119 31 C-90.95790742 23.31141611 -62.90427612 15.66474616 -34.81848145 8.13720703 C-32.14868381 7.42151077 -29.47953642 6.7034607 -26.81091309 5.98339844 C-23.06948588 4.97406282 -19.32589483 3.97291928 -15.58203125 2.97265625 C-14.46470108 2.67025528 -13.34737091 2.36785431 -12.19618225 2.05628967 C-11.17084885 1.78384933 -10.14551544 1.511409 -9.08911133 1.23071289 C-8.19799149 0.99171768 -7.30687164 0.75272247 -6.38874817 0.50648499 C-4 0 -4 0 0 0 Z " fill="#010101" transform="translate(355,24)"/>
<path d="M0 0 C0.64252787 -0.00297112 1.28505574 -0.00594224 1.94705415 -0.0090034 C4.1157777 -0.0177254 6.28444629 -0.01920159 8.45318604 -0.02069092 C10.00185261 -0.02531672 11.55051804 -0.03034105 13.09918213 -0.03573608 C17.3183319 -0.04888728 21.53746573 -0.05531062 25.7566328 -0.05974674 C28.39110467 -0.06267381 31.02557215 -0.06677796 33.66004181 -0.07125092 C41.89814667 -0.08493458 50.13624154 -0.09459631 58.37435699 -0.09845281 C67.89198486 -0.10293232 77.40946904 -0.12047158 86.92705321 -0.1494534 C94.27741216 -0.17106044 101.62773066 -0.18115661 108.97812104 -0.18249393 C113.37082321 -0.18354289 117.76339046 -0.18946976 122.15605927 -0.20731354 C126.28958701 -0.22377681 130.42287818 -0.22595827 134.556427 -0.21717453 C136.07336307 -0.21640315 137.59031175 -0.22076022 139.10721588 -0.23063278 C141.17918144 -0.24332637 143.25030594 -0.23749043 145.32226562 -0.22705078 C146.48150417 -0.22851734 147.64074272 -0.2299839 148.83510971 -0.2314949 C153.12612412 0.28668404 155.73826534 1.91638071 158.70333862 5.0004425 C160.19643342 7.63728319 160.29542263 9.35831998 160.30328369 12.38043213 C160.31274017 13.4250914 160.32219666 14.46975067 160.3319397 15.54606628 C160.32283066 17.23053612 160.32283066 17.23053612 160.3135376 18.94903564 C160.31784286 20.68734398 160.31784286 20.68734398 160.32223511 22.46076965 C160.32427619 24.91104623 160.31874332 27.36133908 160.30621338 29.81158447 C160.2901758 33.56024696 160.30605407 37.30782883 160.32525635 41.05645752 C160.32327364 43.43731927 160.3194294 45.81818036 160.3135376 48.19903564 C160.31961029 49.3199913 160.32568298 50.44094696 160.3319397 51.59587097 C160.31775497 53.16758812 160.31775497 53.16758812 160.30328369 54.77105713 C160.30089691 55.68942856 160.29851013 56.60779999 160.29605103 57.55400085 C159.81707105 60.80600358 158.95040727 62.55397911 156.9151001 65.14044189 C152.57207117 67.74718019 149.34816968 68.51833501 144.31158447 68.53485107 C142.34330688 68.55187576 142.34330688 68.55187576 140.33526611 68.56924438 C138.89312683 68.56660143 137.45098811 68.56363027 136.0088501 68.56036377 C134.48076763 68.56770804 132.9526907 68.57629531 131.42462158 68.58602905 C127.2841609 68.60821308 123.1438994 68.61117741 119.00338745 68.60928154 C115.54405709 68.60916173 112.08476877 68.61773006 108.62545013 68.62605906 C100.464159 68.64528087 92.30297016 68.64818096 84.1416626 68.64141846 C75.72657765 68.63477402 67.31193063 68.65766083 58.89693451 68.69473219 C51.66618068 68.7254288 44.43556775 68.7367894 37.20475006 68.73289537 C32.88858337 68.73082831 28.57275772 68.73630075 24.25665283 68.76078796 C20.19840246 68.78305296 16.14086473 68.78117997 12.08261108 68.76086044 C10.59511766 68.75745021 9.10757627 68.76254024 7.62014771 68.77684402 C-5.01674037 68.8899634 -5.01674037 68.8899634 -8.95404053 65.72698975 C-11.89499669 62.15710431 -12.21676939 60.48590121 -12.277771 55.94390869 C-12.29383392 54.85905685 -12.30989685 53.77420502 -12.32644653 52.65647888 C-12.37082593 47.69288704 -12.41195817 42.72942977 -12.43499756 37.76568604 C-12.45156573 35.14580406 -12.4788666 32.52596744 -12.51702881 29.90631104 C-12.57171931 26.13385507 -12.59366061 22.36245935 -12.6083374 18.58966064 C-12.63100677 17.41868332 -12.65367615 16.24770599 -12.67703247 15.04124451 C-12.65346948 5.99392999 -12.65346948 5.99392999 -9.61468506 2.92486572 C-8.77985596 2.33600586 -7.94502686 1.747146 -7.0848999 1.14044189 C-5.26845993 -0.67599807 -2.44297 0.00627695 0 0 Z " fill="#BCB7C0" transform="translate(203.08489990234375,390.85955810546875)"/>
<path d="M0 0 C1.40950545 11.46933743 2.38111163 22.87923368 2.89138794 34.42282104 C3.08027659 38.68743735 3.28759002 42.95114749 3.49609375 47.21484375 C3.53721786 48.05956741 3.57834198 48.90429108 3.62071228 49.77461243 C3.98166061 57.00623545 4.49763341 64.21882175 5.0625 71.4375 C6.23602303 86.60737674 6.63366964 101.79282266 7 117 C-5.00259383 120.90713424 -17.1224466 124.27435389 -29.32324219 127.50415039 C-32.41985131 128.32438022 -35.51467714 129.15110701 -38.609375 129.97851562 C-40.58062856 130.50298244 -42.55197906 131.02708508 -44.5234375 131.55078125 C-45.44724213 131.79758133 -46.37104675 132.04438141 -47.32284546 132.29866028 C-48.17198517 132.52277084 -49.02112488 132.74688141 -49.89599609 132.9777832 C-50.64271576 133.17588089 -51.38943542 133.37397858 -52.15878296 133.57807922 C-54 134 -54 134 -56 134 C-62.00672971 44.77522888 -62.00672971 44.77522888 -63 17 C-28.44108204 7.35816108 -28.44108204 7.35816108 -11.8125 2.875 C-10.72211426 2.58036865 -9.63172852 2.2857373 -8.50830078 1.98217773 C-7.52200684 1.71735596 -6.53571289 1.45253418 -5.51953125 1.1796875 C-4.23719604 0.83526611 -4.23719604 0.83526611 -2.92895508 0.48388672 C-1 0 -1 0 0 0 Z " fill="#010101" transform="translate(236,55)"/>
<path d="M0 0 C21.78 0 43.56 0 66 0 C64.35 8.25 62.7 16.5 61 25 C59.96868875 30.29858003 58.9384704 35.59714052 57.91744995 40.89767456 C55.07690835 55.62824692 52.09467347 70.32013868 49 85 C47.02 94.57 45.04 104.14 43 114 C21.55 114 0.1 114 -22 114 C-22 108.71331569 -21.74163258 104.89896715 -20.6796875 99.86328125 C-20.5406752 99.19494263 -20.4016629 98.526604 -20.25843811 97.8380127 C-19.80392932 95.66138837 -19.33952774 93.48700599 -18.875 91.3125 C-18.55352728 89.78161803 -18.23265295 88.2506103 -17.91235352 86.71948242 C-15.72316533 76.28390691 -13.46507554 65.8630451 -11.20727539 55.44213867 C-9.01958043 45.2653004 -7.03291288 35.05355483 -5.09155273 24.82739258 C-4.86153564 23.61849365 -4.63151855 22.40959473 -4.39453125 21.1640625 C-4.19706299 20.11686035 -3.99959473 19.0696582 -3.79614258 17.99072266 C-2.59705498 11.98020872 -1.28419435 5.99290696 0 0 Z " fill="#010102" transform="translate(182,224)"/>
<path d="M0 0 C21.45 0 42.9 0 65 0 C63.87483211 12.37684678 63.87483211 12.37684678 62.58203125 18.52734375 C62.37556725 19.52170189 62.37556725 19.52170189 62.16493225 20.53614807 C61.72002436 22.67121805 61.26637444 24.80432001 60.8125 26.9375 C60.49640062 28.44650848 60.1808161 29.9556249 59.86572266 31.46484375 C57.66915799 41.957355 55.40342982 52.43505555 53.13671875 62.91259766 C50.99915535 72.85772628 49.06145698 82.83647029 47.17578125 92.83203125 C45.82904838 99.89678606 44.4104616 106.947692 43 114 C21.22 114 -0.56 114 -23 114 C-20.75262544 99.39206534 -20.75262544 99.39206534 -19.44921875 93.609375 C-19.16554443 92.33634521 -18.88187012 91.06331543 -18.58959961 89.75170898 C-18.36891312 88.77341629 -18.36891312 88.77341629 -18.14376831 87.77536011 C-17.350703 84.25496915 -16.57392425 80.73098632 -15.796875 77.20703125 C-15.64145737 76.50292618 -15.48603973 75.79882111 -15.32591248 75.07337952 C-12.47292946 62.10289529 -9.97047292 49.06070566 -7.46484375 36.01953125 C-7.33277023 35.33326157 -7.20069672 34.64699188 -7.06462097 33.93992615 C-6.42026091 30.59139065 -5.77859853 27.24242265 -5.14233398 23.89233398 C-4.90716064 22.66458252 -4.6719873 21.43683105 -4.4296875 20.171875 C-4.22585449 19.1003418 -4.02202148 18.02880859 -3.81201172 16.92480469 C-2.64038112 11.26180604 -1.30034664 5.63483545 0 0 Z " fill="#010102" transform="translate(305,224)"/>
<path d="M0 0 C1.40517866 14.84406817 2.33797922 29.67622797 3.05505371 44.56594849 C3.85302201 61.06034362 4.90981759 77.53323058 6.03491211 94.00830078 C6.09886673 94.95633575 6.16282135 95.90437073 6.22871399 96.88113403 C6.34824894 98.65070792 6.46975453 100.42015033 6.59367371 102.18942261 C6.90502869 106.80621459 7.05815174 111.37267209 7 116 C-3.37681773 119.32656853 -13.86250483 122.18936125 -24.38793945 125.00146484 C-27.22121599 125.75901484 -30.0530282 126.52187552 -32.88476562 127.28515625 C-34.68741567 127.76854375 -36.49014702 128.25162819 -38.29296875 128.734375 C-39.13868942 128.96243835 -39.9844101 129.19050171 -40.85575867 129.42547607 C-46.77008998 131 -46.77008998 131 -49 131 C-49.98489163 122.40616686 -50.40643323 113.81364445 -50.81594849 105.177948 C-51.42341844 92.41924875 -52.10311051 79.67515705 -53.0625 66.9375 C-53.7989268 57.15696355 -54.36253856 47.38614479 -54.75390625 37.5859375 C-55.07640139 29.71952505 -55.55258611 21.86008992 -56 14 C-48.83085057 11.99719438 -41.65897152 10.0044061 -34.48510742 8.01855469 C-32.04501384 7.34182329 -29.60555414 6.66280197 -27.16674805 5.98144531 C-23.66098568 5.00242924 -20.1530256 4.03167321 -16.64453125 3.0625 C-15.00989677 2.60315063 -15.00989677 2.60315063 -13.34223938 2.13452148 C-12.32155869 1.85423096 -11.30087799 1.57394043 -10.24926758 1.28515625 C-9.35436111 1.03644775 -8.45945465 0.78773926 -7.53742981 0.53149414 C-4.95095851 -0.01027231 -2.63444919 -0.09742755 0 0 Z " fill="#FDFDFD" transform="translate(292,41)"/>
<path d="M0 0 C1.8736351 19.9472675 3.35244258 39.86976415 4.29589844 59.88305664 C4.76472025 69.77008795 5.36536992 79.63020118 6.125 89.5 C6.82930577 98.69280144 7.28224125 107.78011932 7 117 C-5.88429753 120.88238499 -18.81662692 124.55947671 -31.83810425 127.95263672 C-33.24009118 128.31816864 -34.64156111 128.68568914 -36.04251099 129.05517578 C-38.01498535 129.57429256 -39.98986618 130.08423951 -41.96484375 130.59375 C-43.1055835 130.88958984 -44.24632324 131.18542969 -45.42163086 131.49023438 C-46.27249268 131.65845703 -47.12335449 131.82667969 -48 132 C-49.96608234 130.03391766 -49.34694447 126.2704488 -49.46484375 123.57421875 C-49.5211068 122.42566406 -49.5211068 122.42566406 -49.57850647 121.25390625 C-49.65944393 119.59851012 -49.7384195 117.94301717 -49.81567383 116.28744507 C-50.02079743 111.90981344 -50.24225011 107.53302343 -50.46484375 103.15625 C-50.50926605 102.28006516 -50.55368835 101.40388031 -50.59945679 100.50114441 C-50.97484982 93.22222672 -51.45548888 85.95589034 -52 78.6875 C-55.38436616 32.99013802 -55.38436616 32.99013802 -55 15 C-43.95871849 11.42229736 -32.84512017 8.26965784 -21.61254883 5.3503418 C-19.01212301 4.67440536 -16.41320258 3.99289738 -13.81445312 3.31054688 C-12.15893605 2.87729116 -10.50334018 2.44433638 -8.84765625 2.01171875 C-8.07180679 1.80866623 -7.29595734 1.60561371 -6.49659729 1.39640808 C-1.11736061 0 -1.11736061 0 0 0 Z " fill="#FDFDFD" transform="translate(173,72)"/>
<path d="M0 0 C0.03314301 0.60181091 0.06628601 1.20362183 0.10043335 1.82366943 C1.88901149 35.3946531 1.88901149 35.3946531 4.125 68.9375 C4.72316911 76.91349174 5.24966841 84.88511168 5.625 92.875 C5.66512207 93.7012085 5.70524414 94.52741699 5.74658203 95.37866211 C6.05842731 102.58518884 6.03513033 109.78787434 6 117 C-1.3492439 118.99908525 -8.70005687 120.9923172 -16.05200195 122.98144531 C-18.55399703 123.65912651 -21.05562685 124.33815774 -23.55688477 125.01855469 C-27.14765268 125.99507274 -30.73969681 126.9667629 -34.33203125 127.9375 C-35.45398392 128.24373291 -36.57593658 128.54996582 -37.73188782 128.86547852 C-38.77274033 129.14576904 -39.81359283 129.42605957 -40.88598633 129.71484375 C-41.80309891 129.96355225 -42.72021149 130.21226074 -43.66511536 130.46850586 C-46 131 -46 131 -49 131 C-50.78002405 116.43788833 -51.53879608 101.85218678 -52.24731445 87.20825195 C-52.33017264 85.49690425 -52.41309911 83.78555984 -52.49609375 82.07421875 C-52.53714737 81.22650406 -52.57820099 80.37878937 -52.62049866 79.50538635 C-53.08833106 69.98138225 -53.6806622 60.46548859 -54.30273438 50.95043945 C-55.08401513 38.64280553 -55.53693186 26.32306907 -56 14 C-48.66954912 11.99913594 -41.33699943 10.0061127 -34.00292969 8.01855469 C-31.50764605 7.34132834 -29.01285042 6.66230123 -26.51855469 5.98144531 C-22.93551035 5.00373314 -19.35076723 4.0324871 -15.765625 3.0625 C-14.09043793 2.60315063 -14.09043793 2.60315063 -12.38140869 2.13452148 C-11.34063171 1.85423096 -10.29985474 1.57394043 -9.22753906 1.28515625 C-8.31264709 1.03644775 -7.39775513 0.78773926 -6.45513916 0.53149414 C-4 0 -4 0 0 0 Z " fill="#FDFDFD" transform="translate(411,9)"/>
<path d="M0 0 C19.14 0 38.28 0 58 0 C56.87491541 10.12576134 56.87491541 10.12576134 56.01953125 14.14453125 C55.82818604 15.05340088 55.63684082 15.96227051 55.43969727 16.89868164 C55.23272217 17.8602417 55.02574707 18.82180176 54.8125 19.8125 C54.59327881 20.84947021 54.37405762 21.88644043 54.14819336 22.95483398 C52.96422028 28.54117413 51.7577808 34.12256986 50.546875 39.703125 C50.05168292 41.98949665 49.55689659 44.27595621 49.0625 46.5625 C48.81226074 47.71935303 48.56202148 48.87620605 48.30419922 50.06811523 C46.13783761 60.17204238 44.16161745 70.30903571 42.26782227 80.46704102 C40.13828664 91.73586565 37.5488134 102.78522106 35 114 C16.19 114 -2.62 114 -22 114 C-22 109.05961244 -21.9373229 105.86507113 -20.86328125 101.2890625 C-20.61835938 100.22268555 -20.3734375 99.15630859 -20.12109375 98.05761719 C-19.85425781 96.92485352 -19.58742188 95.79208984 -19.3125 94.625 C-18.75441973 92.18537315 -18.1984742 89.7452571 -17.64453125 87.3046875 C-17.36561035 86.07717773 -17.08668945 84.84966797 -16.79931641 83.58496094 C-15.62563654 78.32096728 -14.5485589 73.04016267 -13.5 67.75 C-13.20089722 66.24119263 -13.20089722 66.24119263 -12.89575195 64.7019043 C-11.75949052 58.93301878 -10.64379508 53.16021928 -9.53125 47.38671875 C-9.40415649 46.72771576 -9.27706299 46.06871277 -9.14611816 45.38973999 C-8.53383352 42.21383987 -7.92379141 39.03756866 -7.31835938 35.86035156 C-5.0187738 23.87335688 -2.49069258 11.95532439 0 0 Z " fill="#FDFDFD" transform="translate(370,224)"/>
<path d="M0 0 C18.81 0 37.62 0 57 0 C55.875 11.25 55.875 11.25 55.01953125 15.2421875 C54.82818604 16.14783447 54.63684082 17.05348145 54.43969727 17.98657227 C54.23272217 18.93975342 54.02574707 19.89293457 53.8125 20.875 C53.59327881 21.9074585 53.37405762 22.93991699 53.14819336 24.00366211 C51.96306109 29.57216031 50.75396348 35.13544697 49.546875 40.69921875 C49.05168473 42.98689292 48.55689837 45.27465456 48.0625 47.5625 C47.81226074 48.7187085 47.56202148 49.87491699 47.30419922 51.06616211 C45.95786871 57.34202119 44.66674072 63.62531355 43.4609375 69.9296875 C43.3328923 70.59864548 43.20484711 71.26760345 43.07292175 71.95683289 C42.46280282 75.1547251 41.8604449 78.35373238 41.26782227 81.55493164 C39.20583277 92.49602463 36.59037351 103.12043125 34 114 C15.19 114 -3.62 114 -23 114 C-22.36745391 108.30708522 -21.69774849 102.95160842 -20.6171875 97.37109375 C-20.48227905 96.67176727 -20.34737061 95.9724408 -20.20837402 95.25192261 C-19.76818693 92.97959278 -19.32201207 90.70849636 -18.875 88.4375 C-18.72138 87.65087982 -18.56776001 86.86425964 -18.40948486 86.05380249 C-15.94543068 73.44748275 -13.2843505 60.89208499 -10.49462891 48.35424805 C-8.4248399 39.03198874 -6.4892593 29.69104217 -4.68505859 20.3137207 C-3.3498914 13.45167979 -1.70236169 6.80944676 0 0 Z " fill="#FDFDFD" transform="translate(248,224)"/>
<path d="M0 0 C18.81 0 37.62 0 57 0 C56.31152359 7.57324046 55.42462155 14.5784695 53.8125 21.9375 C53.59327881 22.96544678 53.37405762 23.99339355 53.14819336 25.05249023 C52.4391893 28.36989208 51.72082879 31.68514867 51 35 C50.01841594 39.52031367 49.03884172 44.04105095 48.0625 48.5625 C47.68822876 50.29367065 47.68822876 50.29367065 47.30639648 52.05981445 C45.3770185 61.06008203 43.60191756 70.08432124 41.875 79.125 C40.23512669 87.70762793 38.57920785 96.28123381 36.6875 104.8125 C36.52813965 105.53518066 36.3687793 106.25786133 36.20458984 107.00244141 C35.13210941 111.73578118 35.13210941 111.73578118 34 114 C15.19 114 -3.62 114 -23 114 C-22.3014945 107.01494501 -21.38508261 100.68143509 -19.75 93.9375 C-17.91534129 86.1059916 -16.19144662 78.26465229 -14.625 70.375 C-14.42422852 69.3646167 -14.22345703 68.3542334 -14.01660156 67.31323242 C-12.90865996 61.69883649 -11.82176231 56.08055625 -10.74691772 50.45974731 C-10.14824609 47.33079873 -9.54650894 44.20244125 -8.94500732 41.07403564 C-8.51765678 38.84221195 -8.09579089 36.60940429 -7.67431641 34.37646484 C-5.45336944 22.79907697 -2.73887048 11.503256 0 0 Z " fill="#FDFDFD" transform="translate(125,224)"/>
<path d="M0 0 C9.9 0 19.8 0 30 0 C30.11299595 20.03679026 30.20504735 40.07332137 30.25906086 60.11034966 C30.28481015 69.41450303 30.31989783 78.71844395 30.37719727 88.02246094 C30.42713277 96.13464445 30.45931481 104.24667405 30.47044247 112.359007 C30.47694412 116.6519757 30.49215584 120.94450419 30.52865028 125.23733139 C30.56277058 129.28395018 30.57302099 133.32995046 30.56553841 137.37669945 C30.56690584 138.85608604 30.57674294 140.33549487 30.59602737 141.81475639 C30.72156417 151.94755908 29.60870544 159.55334811 22.9375 167.4375 C21.9784375 168.2109375 21.9784375 168.2109375 21 169 C20.0409375 169.804375 20.0409375 169.804375 19.0625 170.625 C14.26266928 173.82488715 9.95317608 174.27925721 4.29296875 174.1953125 C3.20487663 174.19106766 3.20487663 174.19106766 2.09480286 174.18673706 C-0.20780368 174.17559799 -2.51001227 174.15050566 -4.8125 174.125 C-6.37955165 174.11496206 -7.94660943 174.10583763 -9.51367188 174.09765625 C-13.34259978 174.0756793 -17.17123256 174.04119339 -21 174 C-18.63712789 172.42475193 -16.7491068 171.45623048 -14.1875 170.375 C-8.69552479 167.6290124 -5.51634296 163.5089006 -3.09649944 157.90925026 C-0.6179945 150.3433175 -0.55780925 142.99206446 -0.56762695 135.09521484 C-0.55859395 133.61591787 -0.54826299 132.13662834 -0.53674316 130.65734863 C-0.50932744 126.67044447 -0.49990981 122.68368291 -0.49388909 118.69669676 C-0.48446496 114.51930891 -0.4582585 110.34202591 -0.43388367 106.16470337 C-0.3903256 98.26729664 -0.36171313 90.36991038 -0.33856028 82.47242033 C-0.31145107 73.47592646 -0.26754324 64.47953863 -0.22227156 55.48312068 C-0.12957849 36.98878935 -0.06004482 18.49446813 0 0 Z " fill="#000000" transform="translate(479,338)"/>
<path d="M0 0 C1.27685165 0.00222061 2.55370331 0.00444122 3.86924744 0.00672913 C4.57165054 0.0065831 5.27405365 0.00643707 5.9977417 0.00628662 C8.32985983 0.00698579 10.66189904 0.01477835 12.9940033 0.02259827 C14.60683142 0.02446243 16.21966012 0.02588634 17.83248901 0.02688599 C22.08550062 0.03071129 26.33847828 0.04054167 30.59147644 0.05158997 C35.69006397 0.06359839 40.78866282 0.06820627 45.88726044 0.07404327 C53.64031294 0.08375342 61.39329092 0.10290987 69.14634705 0.12025452 C69.14634705 22.23025452 69.14634705 44.34025452 69.14634705 67.12025452 C51.12857859 67.36090737 51.12857859 67.36090737 43.44126892 67.41322327 C38.19797791 67.44907563 32.95531622 67.49146144 27.71250916 67.57289124 C23.48494264 67.6381408 19.25805099 67.67397207 15.03001976 67.68951797 C13.41800499 67.70059452 11.8060267 67.72222552 10.1942997 67.75463486 C7.93377369 67.79827785 5.67602619 67.80418612 3.41514587 67.80140686 C1.48654472 67.82139236 1.48654472 67.82139236 -0.48101807 67.84178162 C-3.85365295 67.12025452 -3.85365295 67.12025452 -6.76751709 64.43084717 C-8.92231317 61.01129421 -9.48398977 59.436931 -9.50062561 55.46961975 C-9.51638641 54.38507004 -9.53214722 53.30052032 -9.54838562 52.18310547 C-9.53826447 51.02670059 -9.52814331 49.87029572 -9.51771545 48.67884827 C-9.52249908 47.47841385 -9.52728271 46.27797943 -9.5322113 45.04116821 C-9.53560743 42.50867906 -9.52642542 39.97614589 -9.50550842 37.44374084 C-9.4787192 33.56734093 -9.5052822 29.69383075 -9.5372467 25.81752014 C-9.53394302 23.35462313 -9.52753765 20.89172791 -9.51771545 18.42884827 C-9.52783661 17.27041916 -9.53795776 16.11199005 -9.54838562 14.91845703 C-9.41822778 5.98792422 -9.41822778 5.98792422 -6.37464905 2.91346741 C-5.54272034 2.32170715 -4.71079163 1.7299469 -3.85365295 1.12025452 C-2.85365295 0.12025452 -2.85365295 0.12025452 0 0 Z " fill="#FEFEFF" transform="translate(199.85365295410156,390.87974548339844)"/>
<path d="M0 0 C8.13042727 6.28813945 10.64257828 15.63036232 13.26245117 25.17163086 C13.45796066 25.88010666 13.65347015 26.58858246 13.85490417 27.31852722 C14.4921612 29.63308338 15.12354981 31.94918064 15.75390625 34.265625 C16.19801613 35.89173073 16.64213349 37.51783441 17.08625793 39.14393616 C18.0128807 42.54136128 18.93595734 45.9397294 19.85717773 49.33862305 C21.03371771 53.67647212 22.22434822 58.01031932 23.41834545 62.34339046 C24.33967814 65.69664855 25.25075713 69.05263162 26.15911293 72.40942574 C26.5935065 74.00790146 27.03164248 75.60536539 27.47371483 77.20173454 C31.71100939 92.52966628 31.71100939 92.52966628 31.0859375 100.61328125 C26.05537042 103.40258755 21.05203802 104.88549372 15.5234375 106.30078125 C14.26756836 106.63819336 14.26756836 106.63819336 12.98632812 106.98242188 C8.94881054 108.03415844 5.29655426 108.93187597 1.0859375 108.61328125 C1.0240625 107.31390625 0.9621875 106.01453125 0.8984375 104.67578125 C0.35098249 99.26872557 -1.09607482 94.28585717 -2.6940918 89.12133789 C-4.86369138 82.01481561 -6.64545589 74.82873571 -8.4140625 67.61328125 C-10.49798393 59.13945362 -12.64510829 50.71765708 -15.21313477 42.37695312 C-16.44463854 38.34750124 -17.45826501 34.31897121 -18.37548828 30.21118164 C-20.47817535 20.94534061 -23.57021327 12.98954234 -31.8359375 7.609375 C-35.98602069 5.6201434 -40.43879086 4.60868525 -44.9140625 3.61328125 C-32.39508006 -3.45548456 -12.83263443 -7.56741731 0 0 Z " fill="#5975FD" transform="translate(462.9140625,3.38671875)"/>
<path d="M0 0 C8.8095716 5.60263403 14.99560862 14.37771034 17.33764648 24.56958008 C19.33608825 35.99756261 18.60271029 47.33426929 12.13671875 57.11328125 C6.19744462 65.20621109 -0.76723644 71.23083235 -10.28515625 74.7265625 C-16.89811764 75.13987259 -23.38094314 70.1261826 -28.30859375 66.0546875 C-36.78922789 57.98142006 -41.20093616 48.6607379 -41.68994141 36.92602539 C-41.88491725 24.56251992 -38.82867632 14.79315523 -30.28515625 5.7265625 C-20.22204306 -4.62406821 -12.73856517 -7.21567047 0 0 Z " fill="#5975FE" transform="translate(44.28515625,189.2734375)"/>
<path d="M0 0 C4.52065428 -0.049377 9.04115217 -0.08570823 13.56201172 -0.10986328 C15.10045098 -0.11993118 16.63887107 -0.13358646 18.17724609 -0.15087891 C20.38644133 -0.17509317 22.59538395 -0.18647491 24.8046875 -0.1953125 C25.49432587 -0.20563507 26.18396423 -0.21595764 26.89450073 -0.22659302 C28.59800906 -0.22699478 30.30085943 -0.12191026 32 0 C34 2 34 2 34.24609566 3.97962379 C34.24333028 5.20468667 34.24333028 5.20468667 34.24050903 6.45449829 C34.24325836 7.39121872 34.24600769 8.32793915 34.24884033 9.29304504 C34.24164978 10.32378647 34.23445923 11.35452789 34.22705078 12.41650391 C34.22734283 13.49944229 34.22763489 14.58238068 34.22793579 15.69813538 C34.22653828 19.29102488 34.21095718 22.88370906 34.1953125 26.4765625 C34.19158387 28.96235033 34.18873619 31.44813962 34.18673706 33.93392944 C34.17987126 39.81649086 34.16409547 45.69897602 34.14403808 51.58150613 C34.11950986 58.93453258 34.10875255 66.28756813 34.09765625 73.640625 C34.0761853 86.76046172 34.04099343 99.88020974 34 113 C23.77 113 13.54 113 3 113 C2.67 76.04 2.34 39.08 2 1 C1.34 0.67 0.68 0.34 0 0 Z " fill="#5975FD" transform="translate(475,224)"/>
<path d="M0 0 C6.661875 -0.061875 13.32375 -0.12375 20.1875 -0.1875 C22.28246826 -0.21481201 24.37743652 -0.24212402 26.53588867 -0.27026367 C28.20490951 -0.27902929 29.87393677 -0.28667305 31.54296875 -0.29296875 C32.40265259 -0.30831665 33.26233643 -0.32366455 34.14807129 -0.33947754 C38.92253617 -0.34155852 42.15355302 -0.15666282 46 3 C48.22051095 6.33076643 48.25950555 7.42266328 48.29052734 11.31005859 C48.30328705 12.3948349 48.31604675 13.47961121 48.32919312 14.59725952 C48.33141876 15.76914825 48.33364441 16.94103699 48.3359375 18.1484375 C48.3425943 19.35311676 48.3492511 20.55779602 48.35610962 21.79898071 C48.36624274 24.34937003 48.37092644 26.89978589 48.37060547 29.45019531 C48.37497498 33.35265832 48.41128009 37.25398745 48.44921875 41.15625 C48.45508742 43.63280863 48.45905648 46.10937263 48.4609375 48.5859375 C48.47530853 49.75377777 48.48967957 50.92161804 48.50448608 52.12484741 C48.45880105 60.22560408 48.45880105 60.22560408 46.09619141 64.21337891 C43.18747414 66.69253019 41.64943882 67.12469892 37.91748047 67.11352539 C36.63877075 67.11334412 36.63877075 67.11334412 35.33422852 67.11315918 C34.43760498 67.10804321 33.54098145 67.10292725 32.6171875 67.09765625 C31.79355713 67.09664917 30.96992676 67.09564209 30.12133789 67.09460449 C27.03921114 67.08936519 23.9571042 67.07540396 20.875 67.0625 C13.98625 67.041875 7.0975 67.02125 0 67 C0 44.89 0 22.78 0 0 Z " fill="#FEFEFE" transform="translate(284,391)"/>
<path d="M0 0 C4.93731454 1.46290801 4.93731454 1.46290801 6.375 4 C7.02588557 8.39347757 6.84938867 10.30998011 4.3125 14 C1.375 16 1.375 16 -2.25 16.0625 C-5.625 15 -5.625 15 -7.5625 13.3125 C-8.9863395 10.2135552 -9.17653827 8.37817188 -8.625 5 C-5.91953265 1.14675862 -4.77773264 0 0 0 Z " fill="#F6F8FF" transform="translate(45.625,216)"/>
</svg>
